<svg xmlns="http://www.w3.org/2000/svg" viewBox="0 0 668.58 256.44"><defs><style>.cls-1{fill:#1d1d1b;}</style></defs><g id="Layer_2" data-name="Layer 2"><g id="Capa_1" data-name="Capa 1"><path class="cls-1" d="M92.09,119.87V42.93L58.92,93.27h-.67L25.42,43.43v76.44H0V2H28l31,49.83L89.9,2h27.95V119.87Z"></path><path class="cls-1" d="M211.8,121.89c-36.36,0-62.46-27.11-62.46-60.61v-.34c0-33.5,26.43-60.94,62.8-60.94S274.6,27.1,274.6,60.61v.33C274.6,94.45,248.17,121.89,211.8,121.89Zm35.69-60.95c0-20.2-14.81-37-35.69-37s-35.35,16.49-35.35,36.7v.33c0,20.21,14.81,37,35.69,37s35.35-16.49,35.35-36.7Z"></path><path class="cls-1" d="M296.67,119.87v-19.7l64.81-75.42H298.69V2h96.13v19.7L330,97.14h64.82v22.73Z"></path><path class="cls-1" d="M422.6,119.87v-19.7l64.82-75.42H424.63V2h96.13v19.7L455.94,97.14h64.82v22.73Z"></path><path class="cls-1" d="M641.48,119.87,630.7,93.44H580.87l-10.78,26.43H543.66L594.17,1.18h23.91l50.5,118.69ZM605.79,32.32,590.13,70.54h31.31Z"></path><path class="cls-1" d="M290.27,185.36a.38.38,0,0,1,.08.29,1,1,0,0,0,0,.3l.18,1.25,0,.25-.11,1c0,.06,0,.1,0,.13a.18.18,0,0,0,0,.13l.1.75c0,.06,0,.15-.13.28a.18.18,0,0,1,0,.13s0,.07,0,.13a.63.63,0,0,1,.13.58,4.08,4.08,0,0,1-.22.54l-.54,1.61a2.22,2.22,0,0,1-.19.45c-.1.13-.22.27-.37.44a5.47,5.47,0,0,0-.36.43l-.43.57q-.15.19-.24.12l-.43.57a.08.08,0,0,1-.07.1,2.24,2.24,0,0,1-.34.35,1.77,1.77,0,0,0-.33.34,1.91,1.91,0,0,1-.46.4.22.22,0,0,1-.11.11s-.06,0-.11.1l.25,0-.68.61c-.06,0-.13.07-.23.2a1.06,1.06,0,0,0-.17.28.43.43,0,0,1-.19.2l-.33.05-.47.32-.25,0,0-.25a.35.35,0,0,1,0-.26.35.35,0,0,1,.24-.12l.25,0v-.09l-.25,0c0-.17,0-.25.14-.24a.32.32,0,0,0,.31-.17,1.16,1.16,0,0,0-.52-.09l-.06.18c.17.37.05.53-.36.47a1.38,1.38,0,0,0-.39.23,3,3,0,0,1-.38.31l-.22.28a.66.66,0,0,0-.35.22,1.13,1.13,0,0,0-.25.38c0,.23-.17.36-.45.4l-.5.08,0,.24-.25,0-.5.07c.14.15.37.18.7.07l.71-.35-.25,0a1.3,1.3,0,0,1-.48.24l-.75.11a.7.7,0,0,1-.26,0,.64.64,0,0,0-.25,0c-.12,0-.16.08-.15.2a.75.75,0,0,1-.41.65l-.59.38-.58.38-.76.11c0,.28-.14.39-.38.31s-.26,0-.24.12l0-.25a1.32,1.32,0,0,1-.56.54l-.76.41a.86.86,0,0,1-.4.14,1.1,1.1,0,0,0-.41.14,3.6,3.6,0,0,1-.55.34h.09l1.46-.47.26,0a.73.73,0,0,1,.57-.17.44.44,0,0,0,.34,0,1.23,1.23,0,0,1,.33-.08l.87-.13a5.45,5.45,0,0,1,.89,0,19.31,19.31,0,0,1,2.33.18,6.87,6.87,0,0,1,2.43.94l.55.26a2.8,2.8,0,0,1,.46.28,5.83,5.83,0,0,1,.53.43,4.77,4.77,0,0,1,.45.45l1.18,1.11a5.23,5.23,0,0,1,.82,1l.39,1a.56.56,0,0,0,.13.28.47.47,0,0,1,.12.28l.07.5a.56.56,0,0,0,.08.24.61.61,0,0,1,.08.25.17.17,0,0,1,0,.13.14.14,0,0,0,0,.13c0,.06,0,.15-.13.28l.29.21h.08a.45.45,0,0,0,.08.24.63.63,0,0,1,.07.25c0,.06,0,.15-.13.27.09.22,0,.34-.2.37a.17.17,0,0,0-.12.06.2.2,0,0,1-.12.06c.13.1.19.17.2.23l.29.21c-.1.13-.17.2-.23.21a.18.18,0,0,1-.13,0,.18.18,0,0,0-.13,0c-.12,0-.16.05-.16.1a.17.17,0,0,0,.06.12.23.23,0,0,1,.06.12c.18,0,.22.17.14.41,0,.06-.07.11-.06.14a.27.27,0,0,1-.07.13l.26,0a1.21,1.21,0,0,0-.2.15.55.55,0,0,1-.19.16c.19.14.18.26,0,.34,0,0-.09.06-.1.14a.2.2,0,0,0,.07.21c.07.1,0,.2-.13.27a.41.41,0,0,0-.28.47.47.47,0,0,1-.35.56.14.14,0,0,1-.06-.16c0-.06,0,0-.11.1l0-.25a.56.56,0,0,1,.11-.44c0-.06,0-.09.15-.11l.26,0c0-.05,0-.08-.06-.07s0,0-.05-.08l0-.17c.23-.32.22-.57,0-.76l-.17,0c-.05,0-.08,0-.07.05s0,0-.08.06.14-.22.13-.27a.31.31,0,0,0-.12-.24c-.25-.14-.24-.28,0-.43.05,0,.13-.08.22-.21a.31.31,0,0,1,.33-.13l.16,0,0-.17c-.06,0-.11-.07-.14-.06a.29.29,0,0,1-.14-.07.68.68,0,0,0,0-.34.49.49,0,0,1,.12-.36.7.7,0,0,0,.1-.19,1.12,1.12,0,0,1,.1-.18l-.17-.06a.51.51,0,0,0-.35,0l.21-.28c.16-.08.15-.19,0-.34a.27.27,0,0,1,.22-.2c.12,0,.13-.07.06-.18l-.25,0,0-.17a.69.69,0,0,1-.24-.48l-.09-.07-.07-.5a.94.94,0,0,0-.29-.17,1.45,1.45,0,0,1-.28-.18c-.19-.14-.41-.11-.66.1s-.24.29-.11.44a1.51,1.51,0,0,0,.37.2l-.42.06c.19.14.27.29.23.44a1.17,1.17,0,0,1-.19.41l0,.25a.34.34,0,0,0,.24.48.26.26,0,0,1,.18.05l-.22.29-.18-.06L286,212l-.43.57,0,.25-.26,0-.16,0a1.57,1.57,0,0,0-.19.45.3.3,0,0,0-.06.22c0,.09,0,.14-.15.15l0,.25c0,.23,0,.38-.19.45s-.16.08-.15.2l0,.25a.39.39,0,0,1-.37.39l-.17,0a.47.47,0,0,1-.38.31c-.06,0-.13.08-.23.21.07.1,0,.22-.12.35a.29.29,0,0,0-.06.18.22.22,0,0,1-.06.18.29.29,0,0,0,0,.26c0,.05,0,.11-.11.18s-.12.15-.05.22.13.11.18.1.19.09.2.15a.26.26,0,0,0,.1.15l.19.15-.14.19-.14.19-.29-.22-.29-.21a.24.24,0,0,1-.11.1s-.07,0-.11.1l-.22.28a.68.68,0,0,1-.17.29c-.07.06-.05.15.08.24-.15.14-.3.1-.44-.11l-.18.54a.46.46,0,0,0-.36-.12l-.34.05a.11.11,0,0,0-.11.06.23.23,0,0,1-.12.06c.22,0,.41.11.57.43l-.22.28.29.22-.47.32-.1-.16c0-.05,0-.14.13-.27l-.5.07,0,.33-.5.08c.27.3.18.48-.26.54a3.42,3.42,0,0,1-.29.34c-.1.1-.11.26,0,.47l-.25,0a.14.14,0,0,1,0,.13.18.18,0,0,0,0,.13l-.39.82c0,.06-.05.09-.16.11a.26.26,0,0,0-.16.11c0,.16,0,.27-.08.31a2.09,2.09,0,0,0-.27.16l-.26,0a.51.51,0,0,0-.2.37.54.54,0,0,1,0,.26,1,1,0,0,0,0,.25c-.17,0-.24.09-.23.2l-.15.11a.42.42,0,0,0-.41.15,5.16,5.16,0,0,0-.41.39,1.37,1.37,0,0,1-.51.33c-.22,0-.31.19-.27.47a.61.61,0,0,1-.13.27,2.26,2.26,0,0,1-.45.49l-.18-.06a.71.71,0,0,1-.35.47,4.62,4.62,0,0,0-.55.34.57.57,0,0,0-.11.44,1,1,0,0,1-.25.63.74.74,0,0,1-.1.23,1.54,1.54,0,0,0-.1.23,1.69,1.69,0,0,0-.54-.27c.26.25.2.46-.17.62l.18-.54-.5.07a.16.16,0,0,0-.15.2.5.5,0,0,0,.14.32c.19.14.17.26,0,.34l-.31.22-.31.21c-.11.07-.22.15-.35.22l-.35.22c-.11.07-.14.06-.1,0a.25.25,0,0,0,0-.29l-.21.29a.4.4,0,0,1,.08.58,1.06,1.06,0,0,0-.17.28,1.45,1.45,0,0,1-.17.28c-.1.13-.18.2-.23.2a2.24,2.24,0,0,0-1,1.07c0,.12,0,.18-.14.19a1.08,1.08,0,0,0-.38.31l-.29.39c0,.11-.1.18-.19.19a1,1,0,0,0-.28.13.41.41,0,0,0-.18.2.47.47,0,0,1-.19.19l-.46.32a1.07,1.07,0,0,0-.3.3,1.73,1.73,0,0,0-.21.33.6.6,0,0,1-.3.25,1.28,1.28,0,0,0-.74.79,1,1,0,0,1-.28.47c-.05,0-.08,0-.07.09a.08.08,0,0,1-.07.1.74.74,0,0,0-.26.29.46.46,0,0,1-.35.22c-.17,0-.29.18-.36.47a1.35,1.35,0,0,1-.69.53h-.08a.68.68,0,0,1-.38.35.69.69,0,0,0-.39.27,1,1,0,0,1-.26.25.62.62,0,0,0-.2.15.72.72,0,0,1-.3.26.66.66,0,0,0-.3.26.22.22,0,0,1-.16.1.26.26,0,0,0-.15.11l-.47.32-.68.61-.68.61-.68.6-.9.9a4.77,4.77,0,0,0-.45.45,1.4,1.4,0,0,1-.62.38.92.92,0,0,1-.8.37l.25,0-.68.61-.56.55a4.34,4.34,0,0,1-.58.46l-.46.32a1.15,1.15,0,0,1-.38.31,1.08,1.08,0,0,0-.38.31,3.87,3.87,0,0,0-.75.79l-.21.28a.35.35,0,0,1-.11.11s-.07,0-.12.1l-.65.86-.89.89L249.26,252a.81.81,0,0,0-.1.18.45.45,0,0,1-.18.2.69.69,0,0,1-.41.14,2.76,2.76,0,0,0-.19.46c0,.06-.07.11-.06.13a.25.25,0,0,1-.07.14l-.68.61-.9.89a1.07,1.07,0,0,1-.3.3,2.66,2.66,0,0,0-.37.39,2.21,2.21,0,0,1-.37.4l-.28.38a.78.78,0,0,1-.48.24l.86-1.15.64-.86.65-.86c.14-.19.27-.37.39-.56a4.82,4.82,0,0,1,.39-.57l.86-1.14.64-.86,1.11-1.18a.85.85,0,0,1,.27-.25.84.84,0,0,0,.26-.25l1.07-1.43c.3-.33.6-.67.93-1l.91-1a.84.84,0,0,0,.28-.46l-.47.32a.42.42,0,0,1-.5.07c-.24-.08-.4-.06-.5.07l-.17,0a.66.66,0,0,1-.74-.4,4.5,4.5,0,0,1-.22-.4c-.08-.16,0-.3.19-.45.12-.36.26-.7.41-1a3.8,3.8,0,0,0,.31-1.1c0-.12,0-.18.14-.19s.17-.26,0-.35a.48.48,0,0,1,.1-.53,1.46,1.46,0,0,0,.2-.36,1.22,1.22,0,0,1,.2-.37,3.12,3.12,0,0,0,.23-.8l.32-1.33.18-.53a.67.67,0,0,0,.05-.27.63.63,0,0,1,0-.26l.18-.54.36-1.07a.14.14,0,0,0,0-.17.13.13,0,0,1,0-.17l.53-1.61.54-1.61.54-1.61,1.08-3.22,1.11-3,.94-2.43.57-1.36a2.07,2.07,0,0,1,.34-.64,2.49,2.49,0,0,0,.33-.65q.19-.45.09-.6c0-.06,0-.15.13-.28s.16-.46.24-.67.17-.44.25-.68a.69.69,0,0,0,0-.3.75.75,0,0,1,0-.31l.36-1.07a1.25,1.25,0,0,0,.13-.57,1.26,1.26,0,0,1,.14-.57l.39-.83.61-1.11v-.08c-.14-.15-.11-.35.08-.61a.31.31,0,0,0,.05-.26,5.43,5.43,0,0,0-.95.48,1,1,0,0,0-.23.2,1.22,1.22,0,0,1-.23.2,3.21,3.21,0,0,1-.87.47,2.93,2.93,0,0,0-1.14.93.35.35,0,0,0-.06.26.56.56,0,0,1-.79-.23c-.14-.15-.26-.22-.37-.2l-.5.07-.26,0a1.12,1.12,0,0,1-.23-.48,1.3,1.3,0,0,1,.28-1l.86-1.15a2,2,0,0,0,.62-.51,2.26,2.26,0,0,1,.52-.5l.47-.32,1.14-.93h.09a1,1,0,0,1,.41-.65,4.21,4.21,0,0,0,.61-.52.58.58,0,0,1,.27-.21c.09,0,.17-.08.27-.2a1.06,1.06,0,0,1,.38-.31,2.3,2.3,0,0,0,.47-.32l.25,0a2.11,2.11,0,0,0,.55-.33,4.23,4.23,0,0,1,.54-.42c.11,0,.16-.08.14-.19l.36-1.07c.08-.24.15-.46.2-.67s.12-.43.21-.67l.35-1.07.51-1.86.54-1.61a3,3,0,0,1,.23-.8l.57-1.36c.08-.24.15-.46.2-.67s.13-.43.21-.67a5.41,5.41,0,0,0,.17-.62,4,4,0,0,1,.16-.61l.54-1.61.58-1.36.75-1.9a3.2,3.2,0,0,0,.31-.81,1.07,1.07,0,0,0,.13-.87v-.08a.55.55,0,0,0,.3-.34,1,1,0,0,1,.19-.41.91.91,0,0,0,.17-.32.74.74,0,0,1,.17-.33.47.47,0,0,1,.31-.21,1.12,1.12,0,0,1,.49-.16.14.14,0,0,0,.12-.06.22.22,0,0,1,.12-.06.48.48,0,0,1,.34,0,2.75,2.75,0,0,0,.38.25,2.83,2.83,0,0,0,.36.16,1.77,1.77,0,0,1,.47.32,3.66,3.66,0,0,0,.39.32,1.32,1.32,0,0,1,.38.89l.08.58a.28.28,0,0,1,.16-.11l.1.75a1.24,1.24,0,0,1-.1.53l-.17.54a1,1,0,0,0,0,.43.57.57,0,0,1-.1.44,1.33,1.33,0,0,0-.2.71,2.13,2.13,0,0,1-.12.69l0,.26-.32,1.32a.52.52,0,0,1-.14.27l-.36,1.08a.52.52,0,0,0-.11.39.84.84,0,0,1,0,.39q0,.09,0,.09s0,0,0,.09l-.18.54-.09.27s-.12.07-.29,0-.16.1-.14.27a.23.23,0,0,1,.09.33,2.83,2.83,0,0,0-.16.36,2,2,0,0,1-.32.73,2.57,2.57,0,0,1-.58.68.28.28,0,0,0,0,.35c.13.15.1.29-.11.44a.21.21,0,0,0-.06.17.22.22,0,0,1-.06.18l-.18.54.05.33a3.44,3.44,0,0,1,.7-.44c.37-.22.72-.44,1.06-.66a12,12,0,0,0,1-.74,3.44,3.44,0,0,0,.7-.52,3.08,3.08,0,0,1,.69-.53l1.15-.93.25,0c.25-.21.48-.41.68-.61a2.84,2.84,0,0,1,.69-.52,2.43,2.43,0,0,0,.49-.46,2.17,2.17,0,0,1,.49-.45c.21-.14.4-.28.58-.42s.37-.28.58-.42a1.56,1.56,0,0,1,.33-.35,1.1,1.1,0,0,0,.32-.43,3.49,3.49,0,0,1,.46-.4,10.83,10.83,0,0,0,1.55-1.67l.61-1.11a6.91,6.91,0,0,0,.44-1.08c.07-.3.14-.56.19-.8s.11-.5.19-.79.14-.6.2-.92.14-.63.22-.93a3.33,3.33,0,0,0,.1-.78,6.94,6.94,0,0,1,0-.77.87.87,0,0,0-.11-.75.93.93,0,0,0-.39-.37,6.28,6.28,0,0,0-.74-.36,4.42,4.42,0,0,0-.8-.27l-.53-.1-.52-.1-1-.11-2,0a4.88,4.88,0,0,0-1.65.4,4.55,4.55,0,0,1-1,.23,5.29,5.29,0,0,1-.73.19,4,4,0,0,0-.74.18.34.34,0,0,0-.24.12,1,1,0,0,1-.23.21.66.66,0,0,1-.24.12.49.49,0,0,0-.24.11l-.25,0a.41.41,0,0,1-.5.07q0,.34-.54.42a3.53,3.53,0,0,0-.57.12.9.9,0,0,0-.46.36.64.64,0,0,1-.41.15.86.86,0,0,1-.36.13.87.87,0,0,0-.37.14c0,.22-.09.35-.37.39a1.49,1.49,0,0,0-.56.25,1.43,1.43,0,0,0-.19.16,1,1,0,0,1-.19.15,1,1,0,0,1-.49.16,2.17,2.17,0,0,1-.67.69l-.25,0-1.15.92-1.39,1c-.21.14-.4.28-.58.42l-.5.41a.79.79,0,0,1-.3.26.33.33,0,0,0-.22.24l-1.4,1a3.08,3.08,0,0,1-.5.37,1.15,1.15,0,0,0-.41.44.28.28,0,0,1-.24.12,5.82,5.82,0,0,0-.95.48.36.36,0,0,1-.33,0l-.36-.12a2.42,2.42,0,0,1-1.36-1.18c-.07-.1-.14-.21-.22-.35a1.27,1.27,0,0,1-.15-.44q0-.18.06-.18c.15-.14.29-.27.41-.4a.62.62,0,0,1,.53-.16c.06,0,.13-.08.23-.2l1.11-1.19c.25-.2.5-.4.72-.61s.47-.41.73-.61a10.2,10.2,0,0,1,.84-.63l.93-.64,1.4-1a1,1,0,0,0,.23-.2,1.11,1.11,0,0,1,.22-.2,3.41,3.41,0,0,1,.71-.44,8.22,8.22,0,0,1,.84-.42,7.16,7.16,0,0,0,.83-.42l1.69-.74.08,0a.51.51,0,0,1,.31-.21.8.8,0,0,0,.32-.13,2.47,2.47,0,0,1,.64-.26l1.47-.47c.22-.08.42-.17.6-.25l.61-.26c.59-.19,1.17-.36,1.72-.49l1.72-.42,1.26-.18c.22,0,.43,0,.63-.05a3.44,3.44,0,0,0,.63,0,6.54,6.54,0,0,1,1.27-.09c.46.05.89.08,1.29.11l1.3.12a8.26,8.26,0,0,1,1,.24,7.46,7.46,0,0,1,.94.33,6.46,6.46,0,0,1,2.16,1.4c.26.25.51.51.75.79s.46.57.68.88a3.89,3.89,0,0,1,.34.63,6,6,0,0,0,.36.72ZM252.68,249c-.13-.1-.12-.21,0-.35l0,.25Zm4.72-7.57.22-.29c-.13-.09-.22-.14-.28-.13s-.23.15-.2.37Zm1.15-.93a.21.21,0,0,0-.05-.33,1.17,1.17,0,0,0-.51,0l-.31.22.09.07a.35.35,0,0,1,.22.31l0,.25c0,.11.08.16.19.14a.15.15,0,0,0,.15-.18c.08-.19,0-.32-.31-.39a1.41,1.41,0,0,0,.3-.3Zm.17-.62a.43.43,0,0,1,.09-.53c.11,0,.16,0,.16-.1l.36-1.07c0-.17-.1-.25-.21-.23s-.24.06-.23.12a4.14,4.14,0,0,0-.41.74l0,.25-.21.28c0,.18,0,.29.13.33,0,.12.06.21.3.29Zm16.64-34.72-1.47.46-.72.36-1.21.43a1.13,1.13,0,0,0-.49.15.86.86,0,0,0-.37.39l-.36,1.08a.48.48,0,0,1-.14.23.48.48,0,0,0-.14.23.63.63,0,0,0,0,.26.71.71,0,0,1,0,.26l-.54,1.61-.18.54-.15.79-.36,1.07a9,9,0,0,1-.37,1,2.85,2.85,0,0,1-.33.39.59.59,0,0,0-.13.53.14.14,0,0,1-.07.13.52.52,0,0,0-.14.24c-.09.13-.14.22-.13.27a.86.86,0,0,0,0,.35.46.46,0,0,1-.12.36.93.93,0,0,0-.25.63.54.54,0,0,1-.11.44.72.72,0,0,0-.33.64c0,.23,0,.37-.11.44s-.12.16-.19.46a.48.48,0,0,1-.44.49.22.22,0,0,0-.22.28,2.32,2.32,0,0,1-.06.78l-.12.35-.12.36,0,.17a.51.51,0,0,0-.12.4.55.55,0,0,1-.11.4c0,.11,0,.17-.06.18s-.14.22-.11.44l0,.17a.73.73,0,0,0-.28.46,2.14,2.14,0,0,1-.18.54l-.21.28-.37,1.07a.16.16,0,0,1-.14.2c-.15.13-.19.25-.12.35l0,.26-.34,0,0,.25-.14.79a1.1,1.1,0,0,1-.14.27,1.49,1.49,0,0,0-.13.28,2,2,0,0,1-.28,1,.91.91,0,0,1-.27.26.36.36,0,0,0-.18.23.94.94,0,0,0-.15.71,1.39,1.39,0,0,1-.09.6l-.18.54a.72.72,0,0,0,0,.31c0,.08-.07.13-.23.16a.22.22,0,0,0-.22.28.56.56,0,0,1,0,.47,1.87,1.87,0,0,1-.25.41c-.09.13-.17.26-.24.38a.68.68,0,0,0-.07.43l0,.09a.73.73,0,0,0-.43.57,6.53,6.53,0,0,1-.51,1.26,2,2,0,0,0-.16.62,1.12,1.12,0,0,1-.34.65l-.18.53c-.1.13-.19.26-.29.38l-.28.39c0,.11-.08.25-.12.4a.7.7,0,0,0,.07.46.36.36,0,0,1-.05.26,1.3,1.3,0,0,0-.2.41.78.78,0,0,1-.28.42.46.46,0,0,0,0,.35l.07.5.46-.32.9-.89.68-.61a1.83,1.83,0,0,1,.33-.35,2.19,2.19,0,0,0,.34-.34.9.9,0,0,1,.26-.26.7.7,0,0,0,.26-.24l1.58-1.51,1.36-1.21a2.3,2.3,0,0,0,.53-.5,2.25,2.25,0,0,1,.52-.5c.35-.33.69-.64,1-.91a10,10,0,0,0,.94-.9c.25-.26.48-.52.7-.78s.45-.52.7-.78l1.07-1.43,1.12-1.18.64-.86a2.85,2.85,0,0,0,.41-.44,2.75,2.75,0,0,1,.4-.44l.9-.89a3.54,3.54,0,0,0,.44-.49,3.54,3.54,0,0,1,.44-.49,3.77,3.77,0,0,1,.74-.78A2.9,2.9,0,0,0,276,223a1.76,1.76,0,0,1,.64-.6,3.5,3.5,0,0,0,.53-.46l.45-.45,1.11-1.18a.68.68,0,0,1,.4-.14.69.69,0,0,0,.41-.14,1.22,1.22,0,0,0,.3-.3,1.44,1.44,0,0,1,.38-.35,1.78,1.78,0,0,0,.37-.35,3.81,3.81,0,0,1,1-.91,1.13,1.13,0,0,0,.39-.27,2,2,0,0,0,.29-.34c.06,0,.07-.09,0-.26s-.11-.15,0-.34l.21-.29a1.94,1.94,0,0,1,.58-.76h.08l.86-1.15a.39.39,0,0,1,.24-.12,1.24,1.24,0,0,0,.61-.51.75.75,0,0,1,.43-.57l0-.17-.26,0c-.05,0-.13.07-.22.2a1.23,1.23,0,0,1,.2-.37l0-.16a.34.34,0,0,0-.27-.05.17.17,0,0,0-.12.06.13.13,0,0,1-.11.05l-.09,0V213a.7.7,0,0,0,.1-.19,1.18,1.18,0,0,1,.1-.19,3.51,3.51,0,0,0,.46-1l.61-1.1a.22.22,0,0,0-.05-.34.67.67,0,0,1-.24-.48,2.31,2.31,0,0,1,0-.38,1.57,1.57,0,0,0,0-.38,7,7,0,0,0-.34-1.23.14.14,0,0,1,0-.13.18.18,0,0,0,0-.13l-.39-1c-.14-.2-.27-.27-.37-.2l-.29-.22c-.06,0-.11-.07-.13-.06a.25.25,0,0,1-.14-.07.85.85,0,0,1-.27-.13,1,1,0,0,0-.28-.13,3.14,3.14,0,0,0-1-.21,3.16,3.16,0,0,1-.53-.13,1.19,1.19,0,0,0-.6,0,.55.55,0,0,1-.26,0,.7.7,0,0,0-.26,0,2.31,2.31,0,0,0-.37.1,2.18,2.18,0,0,1-.37.09l-.25,0a.7.7,0,0,1-.26,0,.63.63,0,0,0-.25,0l-1.76.25a2.94,2.94,0,0,0-1.14.33c-.1.13-.17.2-.23.21Zm-15.84,32-.22.28,0,.09.21-.29Zm1,5.47.25,0q-.15.18-.24.12Zm.36-11.29.29.21a.7.7,0,0,1,0,.26.7.7,0,0,0,0,.26l.18.06.09,0a8.68,8.68,0,0,0,.38-.9.37.37,0,0,1-.32.17.34.34,0,0,0-.31.17Zm1.39-2.24,0,.25.25,0,0-.25Zm.11-.44h.08c.05-.07.07-.12.06-.14a.29.29,0,0,1,.07-.14Zm.74-2,.08.58a1.62,1.62,0,0,0,.21-.33c0-.09.16-.09.34,0l-.08-.59c-.05.07-.09.1-.12.1a.35.35,0,0,0-.11.11.14.14,0,0,0-.14.19Zm.49-.75c.13.09.22.14.27.13l.15-.19a2,2,0,0,0-.6,0Zm.25-1.23c-.1.12-.11.21-.05.26a.22.22,0,0,0,.18.06.6.6,0,0,1,.26,0V225a.23.23,0,0,1,.12-.35.28.28,0,0,0,.16-.11l-.33-.47a.22.22,0,0,1-.06.18c.09.22,0,.4-.26.55Zm1.09-1.35-.42.06c.18.09.29.05.32-.13Zm-.17-1.17v.09l-.21.28a.17.17,0,0,0,.12-.06.17.17,0,0,1,.12-.06Zm.28-1.06c-.28,0-.4.17-.37.39l.21-.28c0,.17.07.25.29.21s.16-.07.14-.19a.22.22,0,0,0-.28-.21Zm1-2.1a2.05,2.05,0,0,1-.45.41l.46-.32L266,219Zm.26-1.14-.21.29.09.07.22-.29-.19-.14Zm.94-1.84,0,.34c.16-.08.17-.2,0-.35Zm.45-1.59c-.11,0-.15.1-.13.27l.22-.28-.26,0Zm.57-2c-.36-.07-.5.1-.45.48l.25,0a.23.23,0,0,0,.22-.29c0-.16-.09-.24-.2-.22Zm-.21-.83,0,.25.25,0v-.08c.27-.05.31-.19.1-.45l-.21.29c-.07-.05-.1-.08-.1-.11s0-.07-.1-.12l-.22.29Zm13.85,8.78.14-.19a4.39,4.39,0,0,1-.16.62l-.08.09-.09-.07a.76.76,0,0,1,0-.43Zm.75-21.83a1,1,0,0,1,.45-.11c.14,0,.26-.1.34-.34l-.59.08A1.23,1.23,0,0,0,282.68,198.53Zm.67,19.24.18-.54c-.32.11-.36.26-.1.45Zm.62-20.36a3.18,3.18,0,0,1-.55.33l.28.22.22-.28Zm.18,18.12c-.08-.16-.07-.28,0-.34q.19.13,0,.24l-.16,0Zm.78,2.53c-.13-.1-.11-.18.05-.26l0,.25Zm1.54-1.15a.38.38,0,0,1,.26-.25.37.37,0,0,1,.39.07l0,.16a1.28,1.28,0,0,0-.21.37c0,.12-.08.24-.12.36s-.05.18-.22.2-.33.11-.29.39a.52.52,0,0,1-.36.47c-.05,0-.12.13-.2.37l-.11-.15a1.07,1.07,0,0,1,0-.52l.21-.28a.45.45,0,0,0,.1-.53l.25,0-.19-.15c-.07,0-.11-.07-.14-.06a.29.29,0,0,1-.14-.07l.07-.09a.34.34,0,0,1,.27.05.47.47,0,0,1,.14.14,1.18,1.18,0,0,0,.25.23l.14-.79a.52.52,0,0,1-.22.2h-.09v-.08Zm-.58-3.5,0-.17c.19-.25.21-.45.08-.61.05-.06.07-.1.06-.13a.29.29,0,0,1,.07-.14c0-.06.05-.09.16-.11l0,.17c.13.1.19.17.2.23l-.18.53-.21.29-.17,0Zm.14,2.19.21-.28c.18,0,.23.19.16.49-.13-.1-.22-.14-.27-.13Zm1.32.33c.12,0,.16.09.11.15a.36.36,0,0,0,0,.26.22.22,0,0,1-.06.18l-.28-.21q-.09,0-.09,0s0,0-.09,0l-.29-.22a.7.7,0,0,1,.85,0Zm-.32-.47c0-.16.1-.27.38-.31l.25,0c0,.22,0,.37-.11.44l0-.25A1.18,1.18,0,0,1,287,215.46Zm.57-5.62.07.51c-.17,0-.25,0-.26,0l-.06-.42.17,0,.09.07Zm.29,3.88-.25,0,0,.25.25,0,0-.16Zm.21-2.75c-.1.13-.14.22-.13.27s0,.1,0,.12a.19.19,0,0,1,.07.12.54.54,0,0,1,.15-.15.51.51,0,0,0,.14-.15c0-.11,0-.16-.19-.14Z"></path><path class="cls-1" d="M311.94,185.62a.93.93,0,0,1,.15.49l-.21.28a.76.76,0,0,0-.32.73.39.39,0,0,1-.05.26,1,1,0,0,0-.13.28l0,.25a.31.31,0,0,1-.05.26,2.42,2.42,0,0,0-.15.41,1.22,1.22,0,0,0,.12.53l0,.25a5.83,5.83,0,0,0-.68,1.21l-.36,1.07a5.34,5.34,0,0,1-.45,1l-.61,1.11a.72.72,0,0,0-.15.45,1.35,1.35,0,0,1-.14.53,1.63,1.63,0,0,1-.24.71c-.1.13-.19.26-.29.38l-.28.39a.42.42,0,0,0-.13.27.9.9,0,0,1-.26.63,1.14,1.14,0,0,0-.19.45,1,1,0,0,1-.19.46l-.18.53v.09a.85.85,0,0,1,0,.72,4.17,4.17,0,0,1-.38.61,2.92,2.92,0,0,0-.28.47c-.09.18-.18.36-.26.55l-.65.85-.39.83a.31.31,0,0,1-.12.1s-.06,0-.11.1-.14.22-.13.27a1.49,1.49,0,0,1-.24.76c-.13.22-.27.45-.41.7a5,5,0,0,0-.32.72,4.63,4.63,0,0,1-.32.73.35.35,0,0,1,0,.26,4.19,4.19,0,0,0-.55,1c-.12.33-.24.64-.37.94s-.34.72-.49,1.05a3.86,3.86,0,0,0-.31,1.11c0,.23,0,.34-.13.36a.8.8,0,0,0-.34.56.5.5,0,0,1-.12.36,1,1,0,0,0-.51.58c-.08.24-.16.51-.23.8a3.07,3.07,0,0,1-.29.63,6.38,6.38,0,0,0-.31.56c-.13.3-.26.58-.39.82a3.6,3.6,0,0,0-.32.81c-.08.24-.15.47-.2.67a1,1,0,0,1-.39.53.58.58,0,0,0-.11.18.54.54,0,0,1-.1.18,2.86,2.86,0,0,0-.24.42,1.76,1.76,0,0,1-.24.42,2.83,2.83,0,0,1-.38.86,2.69,2.69,0,0,0-.39.87l-.51,1.86c-.11.41-.22.81-.34,1.19a3.2,3.2,0,0,1-.53,1.06,2.6,2.6,0,0,0-.28.72,2.68,2.68,0,0,1-.28.72l-.24.72-.24.71c-.09.24-.15.45-.21.63l-.21.63a3.92,3.92,0,0,0-.17.62,1.34,1.34,0,0,1-.15.44,4,4,0,0,1-.24.38l-.79,1.64-.22.29a2.05,2.05,0,0,0-.64.56,3.48,3.48,0,0,0-.45.79c-.13.24-.25.49-.36.73a2.25,2.25,0,0,1-.46.66,5.54,5.54,0,0,0-.59,1,8.74,8.74,0,0,1-.5,1l-.18.54a4.42,4.42,0,0,1-.27.8c-.11.24-.22.52-.35.82a.28.28,0,0,1-.16.11c-.05,0-.1,0-.15.11l0-.26a3.69,3.69,0,0,1-.09-1.26c0-.46.1-.94.14-1.43a12.25,12.25,0,0,0,0-1.49.72.72,0,0,0-.13-.33.27.27,0,0,1,0-.34,3,3,0,0,0,.15-.7,3.63,3.63,0,0,1,.16-.71l.18-.54.33-1.32q0-.25.24,0l.09,0a.27.27,0,0,0,0-.34c-.13-.15-.1-.36.09-.61s.14-.22.13-.27l.47-2.11c0-.17-.1-.25-.21-.23l0-.17.15-.78.32-1.33c0-.05,0-.09.15-.1l.09,0a.19.19,0,0,1,0-.13.14.14,0,0,0,0-.13.62.62,0,0,1-.06-.67,2.91,2.91,0,0,0,.3-.64c.07-.29.14-.56.22-.8s.16-.5.23-.8,0-.25,0-.26a.58.58,0,0,0,.44-.49,2,2,0,0,1,.17-.62l0-.25-.17.54a9.81,9.81,0,0,1,.7-2.23l.14-.19.08-.1c-.2-.2-.22-.36-.08-.5a.49.49,0,0,0,.2-.45,1,1,0,0,1,.05-.52,4.08,4.08,0,0,1,.22-.54l.87-2.94.9-2.68,1-3.47c0-.11,0-.17.14-.19s.41-.31.44-.49l.17,0,0,.17-.12.35a1,1,0,0,0,.4-.48,1.54,1.54,0,0,1,.24-.46,5.88,5.88,0,0,0,.19-.75,1.24,1.24,0,0,1,.37-.69,2.18,2.18,0,0,0,.24-.42,1.76,1.76,0,0,1,.24-.42,1.22,1.22,0,0,0,.2-.37,1.24,1.24,0,0,1,.21-.36.91.91,0,0,0,0-.31.57.57,0,0,1,0-.3c0-.06,0-.15.13-.28,0,.11.05.17.11.16l.25,0a6.36,6.36,0,0,1,.25-.63,1.69,1.69,0,0,0,.15-.7,1.38,1.38,0,0,1,.1-.52.26.26,0,0,1,.06-.18c.29,0,.46-.08.51-.29a1.66,1.66,0,0,1,.23-.5,1.54,1.54,0,0,0,.24-.46,1.53,1.53,0,0,1,.23-.46l2.15-4.65a.41.41,0,0,0-.07-.5c-.12-.1-.14-.19,0-.29a1.86,1.86,0,0,1,.31-.26.81.81,0,0,0,.35-.47,2.61,2.61,0,0,1,.35-.57l.82-1.39a1.7,1.7,0,0,1,.19-.2c.07-.06,0-.14-.16-.23.1-.13.1-.22,0-.3a.4.4,0,0,1-.17-.27,1.43,1.43,0,0,1,.09-.61,3.51,3.51,0,0,1,.31-.81.35.35,0,0,0,0-.39,1,1,0,0,1-.14-.36l-.17,0a.21.21,0,0,1-.17-.06c-.06,0-.14.08-.23.21a1.64,1.64,0,0,1,.22-.89l.57-1.36a.44.44,0,0,0,0-.34c0-.06.05-.12.15-.19a.66.66,0,0,1,.24-.12l.75-.11a.79.79,0,0,0,.5-.07.57.57,0,0,1,.51,0,.2.2,0,0,0,.15-.14.65.65,0,0,1,.22-.25l.26,0a8.73,8.73,0,0,0,1.31.24c.28,0,.51.21.67.58a2.32,2.32,0,0,0,1.1,1.13.92.92,0,0,1,.52.39,2.12,2.12,0,0,0,.46.49ZM296.77,204.8h-.09v-.08a.34.34,0,0,0,0-.26.56.56,0,0,1-.08-.24.29.29,0,0,1,.09-.27,2.81,2.81,0,0,0,.26-.29c.28,0,.39.14.31.38l-.4.82Zm.92-1.92a1.25,1.25,0,0,0-.65.86c-.16,0-.2,0-.1-.16a3.33,3.33,0,0,0,.18-.49.78.78,0,0,1,.28-.42.58.58,0,0,0,.1-.19.73.73,0,0,1,.11-.18.49.49,0,0,1,.34,0,.22.22,0,0,1,.05.34c-.08.24-.21.37-.37.39ZM303,190.12l-.42,0a.17.17,0,0,1-.13,0,.14.14,0,0,0-.13,0c.05-.07.07-.11.06-.14a.29.29,0,0,1,.07-.14,1.35,1.35,0,0,0,.2-.37l.29.22c.19.14.18.26,0,.34Z"></path><path class="cls-1" d="M346.93,177.09a3.24,3.24,0,0,1,1.06,1.73,5,5,0,0,1,0,1.88,5.37,5.37,0,0,1-.85,1.82,9,9,0,0,1-1.3,1.38c-.48.4-.95.81-1.4,1.22a12.73,12.73,0,0,1-2.47,1.79,4.76,4.76,0,0,0-1.29,1.12,1.69,1.69,0,0,1-.58.47,1.55,1.55,0,0,0-.57.46,1.1,1.1,0,0,1-.6.26c-.25,0-.35.22-.31.55q0,.09-.15.15l-.24.08a7.12,7.12,0,0,0-.62.72,3.56,3.56,0,0,1-.64.65,3.93,3.93,0,0,0-.73.87c-.18.31-.36.65-.53,1a1.3,1.3,0,0,1-.45.49l-.62.43-.1-.16c-.23-.36-.49-.41-.79-.14a.47.47,0,0,1-.34,0,.31.31,0,0,1-.13-.24.18.18,0,0,1,0-.13.17.17,0,0,0,0-.13l.25-.93c.1-.32.18-.64.26-.93a2.61,2.61,0,0,1,.46-1.26c.26-.37.5-.75.73-1.13.37-.61.75-1.22,1.15-1.82a20.85,20.85,0,0,1,1.33-1.76,19.62,19.62,0,0,1,1.38-1.64l1.48-1.58c.25-.26.5-.51.75-.74s.5-.48.75-.74.77-.78,1.11-1.14l1.12-1.14.29-.38-.59.08a8.66,8.66,0,0,0-2.28,1c-.71.43-1.43.85-2.17,1.24a2.69,2.69,0,0,1-.72.31,2.22,2.22,0,0,0-.64.31l-1.86,1.28c-.1.13-.14.22-.13.28a1.52,1.52,0,0,1-.74,1.12,6.3,6.3,0,0,0-1.12.84l-.68.57a5.37,5.37,0,0,1-.7.48,9.24,9.24,0,0,1-1.28.9,11.06,11.06,0,0,0-1.28.91l-2.29,1.86-.62.42-.62.43a6.83,6.83,0,0,0-.54.42,6.55,6.55,0,0,1-.53.42,9.63,9.63,0,0,1-.92.72,10.14,10.14,0,0,0-.92.73l-1.6,1.38q-.75.66-1.5,1.44c-.29.33-.57.67-.83,1l-.76,1c-.24.33-.45.62-.63.91a5.3,5.3,0,0,0-.48.87,3.83,3.83,0,0,0-.41,1c-.09.35-.17.7-.23,1a.68.68,0,0,0,.52.7,3.76,3.76,0,0,0,1.61.24,6.08,6.08,0,0,0,1.53-.35c1.19-.39,2.37-.8,3.53-1.22s2.33-.86,3.52-1.31l1.45-.55,1.46-.54a8.08,8.08,0,0,1,4-.06,2.25,2.25,0,0,1,1.29,1,3.17,3.17,0,0,1,.47,1.8,9,9,0,0,1-.26,1.78,8.88,8.88,0,0,1-.62,1.67l-.4.74a7.86,7.86,0,0,0-.4.82l-.46.32-.68.61c.15.26.2.44.16.53s-.26.19-.64.3l.28.22-.21.28-.54-.18.12.84a.29.29,0,0,0-.14-.07s-.07,0-.14-.07a3.7,3.7,0,0,0-.08.61l-.83.12.07.51c-.17,0-.28.06-.32.13-.26.2-.41.17-.45-.11l-.09-.07c-.11,0-.16,0-.16.1l-.14.79a.35.35,0,0,1-.05.26l-.64.86a2.76,2.76,0,0,1-.46-.19l.07.5a4.3,4.3,0,0,0-.65-.42,6.88,6.88,0,0,0,.38.88,1.83,1.83,0,0,1-.86.25c-.31,0-.49.23-.55.63a2.09,2.09,0,0,1-.46-.19l-.14.79a1.06,1.06,0,0,0-.17.28,1.45,1.45,0,0,1-.17.28,1.9,1.9,0,0,1-.63.43,1.61,1.61,0,0,1,.31.38l-1.11,1.18a1.36,1.36,0,0,1-.61.51.62.62,0,0,0-.41.66.56.56,0,0,1-.13.27l-1.62,1.25c-.4.34-.78.68-1.13,1s-.73.68-1.14,1a7.13,7.13,0,0,0-.94.85l-.85.93a6.3,6.3,0,0,1-.94.86,6.37,6.37,0,0,0-.95.86,10.5,10.5,0,0,0-1.12,1.09c-.34.39-.71.79-1.11,1.18l-1.16,1.15c-.37.36-.76.74-1.15,1.14a3.87,3.87,0,0,0-.64.64,3.84,3.84,0,0,1-.63.65c-.24.31-.48.62-.73.91a2.57,2.57,0,0,1-.84.67,2,2,0,0,0-.76.66,6,6,0,0,1-.65.82c-.35.33-.67.63-1,.9a10.84,10.84,0,0,0-.89.9,4.78,4.78,0,0,0-.55.63,6.53,6.53,0,0,1-.55.63,5.47,5.47,0,0,0-.42.61,4.27,4.27,0,0,1-.51.63c.09-.19.17-.37.26-.55s.18-.37.26-.55c.47-.69.93-1.38,1.37-2.07s.9-1.37,1.37-2.06a23.89,23.89,0,0,1,2-2.67,5.72,5.72,0,0,1,.58-.68,6.7,6.7,0,0,0,.59-.68l1.54-1.75a8.65,8.65,0,0,0,.49-.75,5.33,5.33,0,0,1,.49-.75,2.65,2.65,0,0,1,.37-.4,2.21,2.21,0,0,0,.37-.39c.29-.38.57-.78.86-1.19a12.77,12.77,0,0,1,.93-1.19c.48-.64,1-1.24,1.45-1.83s1-1.15,1.46-1.73l2.17-2.7,2.18-2.69c.81-1,1.67-2,2.55-3s1.73-2,2.55-3,1.43-1.79,2.13-2.68,1.38-1.79,2.05-2.68a6.23,6.23,0,0,0,.72-1.21,4.12,4.12,0,0,0,.37-1.33.67.67,0,0,0-.53-.69,3.54,3.54,0,0,0-1.34.11l-1.32.35a16.77,16.77,0,0,0-2.75,1c-.91.41-1.81.85-2.71,1.32-.43.17-.83.34-1.21.51s-.77.33-1.2.51a6.87,6.87,0,0,1-3.21.79l-1.89-.07a3.3,3.3,0,0,1-1.78-.6,3.67,3.67,0,0,1-1.74-3.25,5.3,5.3,0,0,1,.45-2.19,10.45,10.45,0,0,1,1.18-2c.38-.51.76-1,1.15-1.49s.77-1,1.15-1.48a18.55,18.55,0,0,1,2.15-2.26c.4-.4.83-.8,1.28-1.21l1.36-1.21a8.66,8.66,0,0,1,1-.87l1-.79,2.54-1.89c.62-.43,1.25-.84,1.87-1.24s1.25-.82,1.87-1.25a33.59,33.59,0,0,1,3.74-2.15c1.3-.63,2.58-1.3,3.85-2,.32-.16.49-.35.51-.58a1.23,1.23,0,0,1,.53-.5,4,4,0,0,1,1-.35q.49-.12,1-.27l1.14-.33a4.19,4.19,0,0,1,1.17-.17,8.41,8.41,0,0,1,1.76.09,3.37,3.37,0,0,1,1.6.8Z"></path><path class="cls-1" d="M388.46,163.55l0,.25c-.32.22-.63.42-.94.61a3.44,3.44,0,0,0-.84.67,1.9,1.9,0,0,1-1,.48,2.26,2.26,0,0,0-1,.4l-.93.64a.72.72,0,0,1,.35,0c-.16.08-.31.14-.44.19a4.46,4.46,0,0,1-.46.11.14.14,0,0,1-.13-.07.15.15,0,0,0-.14-.07c-.32.16-.64.3-1,.44s-.65.27-1,.43-.81.34-1.13.5a1,1,0,0,1-.65.18,2.57,2.57,0,0,0-.68,0l-.17,0a1.17,1.17,0,0,1-1.09.41,1.37,1.37,0,0,0-1.11.33,1.07,1.07,0,0,0-1,.09,2.3,2.3,0,0,1-.93.35,2.48,2.48,0,0,0-.73.27,4.72,4.72,0,0,1-.76.36,1.27,1.27,0,0,1-.8,0l-.17,0a1,1,0,0,1-.92.43,1.94,1.94,0,0,0-1,.19,3.2,3.2,0,0,1-1,.31,3.23,3.23,0,0,0-1,.31,2.83,2.83,0,0,1-1.25.22,1.86,1.86,0,0,0-1.22.39.41.41,0,0,1-.39,0,.65.65,0,0,0-.39-.07l-.85.29a4.55,4.55,0,0,0-.84.37l-1.72.5a.14.14,0,0,0-.12.06.2.2,0,0,1-.12.06l-.75.1,0-.25-.14.19c-.22.09-.48.21-.8.37l-.5.07a1.33,1.33,0,0,0-.49.16.17.17,0,0,0-.12.06.2.2,0,0,1-.12.06l-1.25.17a1.39,1.39,0,0,0-.48.24,1.67,1.67,0,0,0,.41.45,4.57,4.57,0,0,0,.75.49,2.64,2.64,0,0,1,.68.59,5.26,5.26,0,0,1,.95,1.32,2.84,2.84,0,0,1,.23,1.67,1.62,1.62,0,0,0,.05.63,1.84,1.84,0,0,1,.05.63,2.91,2.91,0,0,1-.06.77.22.22,0,0,1-.18-.06c-.06,0-.09,0-.1-.07l-.32.43a3.3,3.3,0,0,0-.31.51c-.13.31-.24.61-.34.9s-.19.6-.26.89a8.28,8.28,0,0,1-.29.94c-.13.33-.25.64-.38,1,0,.11,0,.17-.14.19-.28.09-.33.33-.16.7a.53.53,0,0,1-.11.44,16.9,16.9,0,0,1-1.4,2.16.26.26,0,0,1-.15.11.22.22,0,0,0-.16.1c-.15.14-.28.25-.37.35s-.1.29,0,.56a.72.72,0,0,1,0,.35l-.12.35a.77.77,0,0,0-.14.45.79.79,0,0,1-.16.45.35.35,0,0,1-.17.23,1,1,0,0,0-.27.25c0,.29,0,.6,0,.94s0,.68,0,1-.25.61-.78.45a11.78,11.78,0,0,0-.35,1.16l-.67.09a.93.93,0,0,1,0,1.36,2.1,2.1,0,0,0-.24.72l-.38.86q-.21.42-.39.87l.28.21q-.36.48-.69.87a5.88,5.88,0,0,0-.6.85c-.09.18-.17.38-.26.59s-.17.41-.25.59a.55.55,0,0,0,0,.38,1.42,1.42,0,0,1,.09.37l-.33.05a.47.47,0,0,0-.31.21.56.56,0,0,0-.12.4.82.82,0,0,1-.1.48l-.42.06A1.07,1.07,0,0,1,348,206a1.35,1.35,0,0,0-.35.47,2.19,2.19,0,0,0-.12.7,2.07,2.07,0,0,1-.11.69,3.88,3.88,0,0,1-.31.82,7.35,7.35,0,0,1-.42.65,6.55,6.55,0,0,0-.49.75l.58-.08a7,7,0,0,0-1.52,3.11l.72-.36a.33.33,0,0,0-.07.14s0,.08-.06.14a1.37,1.37,0,0,0-.5.71,8,8,0,0,1-.3.85,3.44,3.44,0,0,1-.29.64,6.26,6.26,0,0,0-.31.55.17.17,0,0,1,0,.13.17.17,0,0,0,0,.14c-.16.47-.3,1-.43,1.46a4.15,4.15,0,0,1-.69,1.42.77.77,0,0,0-.15.49,1.25,1.25,0,0,1-.13.57c-.17.42-.31.83-.43,1.21a11.67,11.67,0,0,1-.42,1.21c-.25.66-.47,1.3-.67,1.92a8.35,8.35,0,0,1-.84,1.87,1.62,1.62,0,0,0-.29.64,6.93,6.93,0,0,1-.2.71,4.42,4.42,0,0,1-.27.8c-.1.25-.23.49-.36.74a5.36,5.36,0,0,1-.81,1c-.14.19-.27.21-.41.06-.06,0-.1-.1-.13-.32l.86-4.73c.15-.92.34-1.84.55-2.75s.43-1.81.64-2.69c.51-2.06,1-4.1,1.61-6.11s1.13-4,1.69-6.11c.14-.59.27-1.16.4-1.72a14,14,0,0,1,.47-1.73c.19-.65.4-1.32.61-2s.45-1.36.7-2c.32-.9.65-1.8,1-2.69s.66-1.8,1-2.7c.26-.6.53-1.19.82-1.77s.56-1.17.81-1.78a3.66,3.66,0,0,0,.22-.58,3,3,0,0,1,.21-.59l1.69-4.32c.33-.85.63-1.67.89-2.47s.55-1.63.88-2.47c.22-.48.43-1,.65-1.45s.43-1,.64-1.46a4.92,4.92,0,0,0,.33-1.32c0-.69-.27-.87-.85-.56l-.6.25-.6.26-.26,0a5.11,5.11,0,0,0-2.4.43,8.34,8.34,0,0,1-1.39.41,7.06,7.06,0,0,0-1.39.41,4.2,4.2,0,0,0-.6.3,1.64,1.64,0,0,1-.61.21,4.1,4.1,0,0,0-2.1.81l-.25,0a1.43,1.43,0,0,0-1.5.81c-.25.32-.56.31-.95,0a2.88,2.88,0,0,1-.8.33,2.11,2.11,0,0,0-.73.32.78.78,0,0,1-.69.22c-.2-.05-.43-.12-.66-.2a.55.55,0,0,0-.42.06,1.17,1.17,0,0,1-.41.14,2.31,2.31,0,0,0-.37.1l-.37.09-.09-.07a.14.14,0,0,1,.14-.19l.5-.07a1.36,1.36,0,0,0-.42-.58,1.16,1.16,0,0,0-.76.06,1.05,1.05,0,0,1-.76,0c-.24-.08-.51-.15-.8-.22a2.58,2.58,0,0,1-1.17-.77,12.69,12.69,0,0,0-.95-1,1,1,0,0,1-.38-.58,2.88,2.88,0,0,0-.32-.76.26.26,0,0,0,.15-.11c.06,0,.08,0,.08-.05s0-.05.08-.06a1.26,1.26,0,0,0,1.25-.18.73.73,0,0,1,.67-.09,3.89,3.89,0,0,0,2,.23,18.72,18.72,0,0,0,1.87-.35l2.1-.46c.69-.16,1.39-.34,2.09-.55a1.76,1.76,0,0,0,.49-.16l.48-.24,2.08-.63,2.09-.64c1-.26,2.06-.53,3.07-.82l3.08-.82c1.21-.28,2.41-.51,3.61-.68a35.75,35.75,0,0,0,3.61-.68l9.92-2.17c1.43-.31,2.87-.66,4.32-1l4.31-1.13c.93-.24,1.87-.47,2.8-.69s1.87-.45,2.8-.69a17.23,17.23,0,0,1,2-.5c.67-.12,1.33-.25,2-.4a.17.17,0,0,1,.13,0,.18.18,0,0,0,.13,0ZM345.12,204a.39.39,0,0,0,0-.3.18.18,0,0,1,0-.21.25.25,0,0,1,.25-.08.24.24,0,0,0,.24-.08.43.43,0,0,0,.12-.35.84.84,0,0,1,0-.35l-.29.38-.05-.33a3.07,3.07,0,0,1-.29.63,6.38,6.38,0,0,0-.31.56.76.76,0,0,0,0,.43.86.86,0,0,1,.28-.13.31.31,0,0,0,.2-.11Zm1.12.1c.09-.19.17-.37.26-.55l.27-.55c-.06,0-.1,0-.11-.15s0-.08-.1-.07a3.9,3.9,0,0,0-.45.4l-.35.81a4.81,4.81,0,0,0-.27.81,1.7,1.7,0,0,0,0,.68,1.54,1.54,0,0,1,.26-.29.7.7,0,0,0,.17-.28.85.85,0,0,1,.13-.27l.22-.29Zm.15-3.77a5.49,5.49,0,0,0,.65-.78.78.78,0,0,0,0-.38.51.51,0,0,1,.11-.4l1.36-3,.79-1.64-.21.29c-.09.18-.17.37-.26.58s-.17.41-.25.59a.81.81,0,0,0-.13.32c0,.15-.13.09-.28-.17h-.09c-.05,0-.07,0-.07.1l-.55.92a7.17,7.17,0,0,0-.46.92c-.17.42-.32.84-.47,1.26a1.75,1.75,0,0,0,.06,1.27Zm4.59-6.7c.09-.13.14-.22.13-.27l-.11-.16-.09-.07a5.14,5.14,0,0,0-.67.69c-.06,0-.07.1-.05.26a.17.17,0,0,0,.06.12.23.23,0,0,1,.06.12l-.4.83a.52.52,0,0,1-.22.2,1.53,1.53,0,0,0-.88,1.06l.76-.11-1.4,2.75c0,.06-.05.09-.16.11l0-.25.18-.53a.71.71,0,0,1-.28.12.61.61,0,0,0-.28.12,3.87,3.87,0,0,0-.27.55,2.26,2.26,0,0,1-.34.56,1.72,1.72,0,0,1,0,.43c.2-.2.45-.43.75-.7l0,.17-.76,1.89a.47.47,0,0,0,0,.35c.05-.07.08-.1.11-.1a.22.22,0,0,0,.11-.11l.39-.9c.12-.3.25-.6.38-.91a2.07,2.07,0,0,1,.34-.64l.42-.57a.62.62,0,0,0,0-.35.88.88,0,0,1,0-.35l1-2.18,1.18-2.46Zm-3.36,11.21c.05-.06,0-.2-.14-.41a4.32,4.32,0,0,1-.42.66,2.15,2.15,0,0,0,.46-.4Zm1.13-8.93-.79,1.64a.12.12,0,0,0,.06.12.15.15,0,0,1,.05.12l.26,0a1.61,1.61,0,0,1,.44-.78.76.76,0,0,0,.08-.91Zm6-7.33.18-.54-.19-.14a3.76,3.76,0,0,0-.25.63c0,.06,0,.08.09.07s.09,0,.09,0,0,0,.09,0Zm1.16-2.64a.59.59,0,0,1,.51-.32c.25,0,.26-.26,0-.69a8.36,8.36,0,0,1-.64.94Z"></path><path class="cls-1" d="M393.26,171.56l0,.25a7.5,7.5,0,0,0-.11,1,2.4,2.4,0,0,0,.24,1.07,1.06,1.06,0,0,1,.05.68,5.51,5.51,0,0,0-.1.78l-.26,3.62c0,.11-.09.25-.15.4s-.12.29-.16.4c-.05.41-.11.8-.17,1.18l-.18,1.17c0,.12-.09.26-.15.41a2.86,2.86,0,0,1-.24.42c-.08.23-.16.46-.25.67s-.16.44-.24.67a1.44,1.44,0,0,1-.36.48c-.26.21-.34.42-.25.63,0,.06-.06.18-.2.37a2.7,2.7,0,0,0-.87.8c-.21.32-.44.64-.68,1a9.25,9.25,0,0,1-.72.87,3,3,0,0,1-.94.65.46.46,0,0,0-.32.13,2.45,2.45,0,0,1-1,1.12,3.89,3.89,0,0,0-1.17,1.05,2.16,2.16,0,0,1-.72.62,5.81,5.81,0,0,0-.82.54c-.56.48-1.12.94-1.68,1.39l-1.68,1.38c-.3.27-.59.54-.86.81a8,8,0,0,0-.77.87c-.1.13-.17.2-.23.21a1.26,1.26,0,0,0-1.16.24,3.75,3.75,0,0,1-1,.66c-.43.23-.85.49-1.3.78l-1.28.86-.27.21a2.12,2.12,0,0,1-.27.21,4.16,4.16,0,0,1,.34.55c.07.16.15.32.23.48a.32.32,0,0,1-.09.22l-.25.34a.4.4,0,0,1,.14.15.52.52,0,0,0,.24.13.38.38,0,0,0,.19-.15c.07-.1.15-.21.25-.33a.8.8,0,0,0,0,.34q0,.44-.06.78a3.33,3.33,0,0,0,0,.76,3.86,3.86,0,0,0,.11.53c.06.2.23.3.52.32l0,.25a3.41,3.41,0,0,1-.08.6,1,1,0,0,1,.32-.13,5.07,5.07,0,0,1,.06,1l-.4.23a6.42,6.42,0,0,0,.63.24.16.16,0,0,1,.2.15c0,.33.18.51.41.53l0,.17a.26.26,0,0,1-.06.18.66.66,0,0,0,.21.91.44.44,0,0,1,.21.31,1.63,1.63,0,0,0,.2,1.08,4.1,4.1,0,0,1,.43,1l0,.17c0,.05,0,.08.09.07-.24.26-.28.48-.12.65a1.07,1.07,0,0,1,.3.6,7.81,7.81,0,0,0,.54,2c.09.27.2.55.33.85a7.12,7.12,0,0,0,.41.83,5.28,5.28,0,0,1,.38.84c.09.3.19.59.29.86.19.54.36,1,.52,1.54a4.58,4.58,0,0,0,.75,1.43,3,3,0,0,1,.32.76,3.08,3.08,0,0,0,.32.77,8.83,8.83,0,0,0,.6,1.19c.22.37.45.76.68,1.18s.57,1,.81,1.55.51,1,.82,1.54.48.94.74,1.39.52.9.76,1.38.44.82.63,1.19.38.77.56,1.2a2.23,2.23,0,0,0,.62,1.7,11.85,11.85,0,0,1,1.18,1.45,8.22,8.22,0,0,1,.42.84,7.16,7.16,0,0,0,.42.83l.32.47a5,5,0,0,1,.57,1c-1.49-1.72-2.9-3.48-4.2-5.28s-2.57-3.61-3.79-5.43-2.46-3.62-3.71-5.43-2.44-3.69-3.56-5.63l.38.28-1.39-2.61-.25,0,0,.25-.21-.31c-.07-.11-.08-.19,0-.25.24-.32.29-.58.15-.79a3.31,3.31,0,0,1-.35-.63,10.4,10.4,0,0,0-.67-1.44c-.27-.48-.52-.95-.76-1.43,0,0-.07-.13-.2-.23a1.35,1.35,0,0,1-.2.37l.07-1.28.29.21.25,0L370,204.83l.15,1-.26,0a1.46,1.46,0,0,1-.15-.49,1.76,1.76,0,0,0-.16-.49.71.71,0,0,1-.1-.41c0-.17-.11-.27-.34-.29l-.75,1.89-.75,1.9a.43.43,0,0,1-.14.23,1.39,1.39,0,0,0-.22.24l.21.32-1.58,1.49c-.11,0-.16.06-.15.11a2.69,2.69,0,0,1-.56,1.19c-.26.32-.52.64-.76,1a7.49,7.49,0,0,0-.62,1,5.63,5.63,0,0,1-.62,1l-.61,1.11c-.18.31-.36.59-.52.84a5.39,5.39,0,0,0-.44.83,1.09,1.09,0,0,0-.18.49,1,1,0,0,1-.19.49,3,3,0,0,0-.49,1,5.14,5.14,0,0,1-.39,1.12c-.18.37-.35.72-.53,1.06s-.36.66-.55,1a1.8,1.8,0,0,0-.23.46,1.8,1.8,0,0,1-.23.46,6.34,6.34,0,0,1-1,1.08.25.25,0,0,1-.38.05.35.35,0,0,1-.18-.39,10.24,10.24,0,0,0,.06-1.33,2.76,2.76,0,0,1,.26-1.19,16.56,16.56,0,0,0,.77-2.07q.33-1.07.6-2.13c.32-1.29.67-2.58,1-3.85s.73-2.56,1.11-3.86c.23-.83.45-1.63.69-2.4s.48-1.57.76-2.41c.21-.54.41-1.06.59-1.57s.38-1,.6-1.49c.24-.66.49-1.35.73-2.06s.48-1.41.73-2.07l1.11-3,1.87-4.87c.2-.59.42-1.16.65-1.71s.45-1.11.66-1.71l1.65-4.58c.2-.54.4-1.06.58-1.57s.38-1,.59-1.57l1.58-5.08c.2-.6.55-.76,1-.49a9.63,9.63,0,0,1,.85.56l.85.65a1.66,1.66,0,0,1,.66,1.61,7,7,0,0,0,0,1.28,6.09,6.09,0,0,1-.05,1.2c-.1.47-.21.94-.31,1.4a7.16,7.16,0,0,1-.48,1.44,3.76,3.76,0,0,0-.25.93,6.65,6.65,0,0,1-.17.91,12.41,12.41,0,0,0-.4,2,12.29,12.29,0,0,1-.4,2,5.48,5.48,0,0,0-.34,1.24,5.34,5.34,0,0,1-.34,1.24c-.12.3-.25.59-.38.86s-.27.57-.39.87a1.25,1.25,0,0,0-.13.57,1.5,1.5,0,0,1-.14.58l-.53,1.6a4.6,4.6,0,0,0-.17.62,2.09,2.09,0,0,1-.46-.19.77.77,0,0,0,.19.74c.21.26.07.48-.41.66V196l-.51.67.29.21c-.12.36-.25.73-.39,1.12s-.3.8-.47,1.22l.29.22a1.31,1.31,0,0,1,.47-.29,1.33,1.33,0,0,0,.47-.27c.61-.54,1.2-1.06,1.78-1.53a19.71,19.71,0,0,1,1.9-1.38,7,7,0,0,0,1.89-1.67c.53-.67,1.06-1.36,1.58-2.06s1.07-1.5,1.65-2.23,1.15-1.46,1.73-2.16c.44-.52.89-1,1.36-1.56s.92-1,1.36-1.56a6.46,6.46,0,0,0,.88-1.57c.21-.54.42-1.08.62-1.62s.41-.95.57-1.4.33-.91.49-1.39c.07-.29.13-.58.17-.87a8.57,8.57,0,0,1,.18-.88c0-.8.12-1.6.21-2.37a20.66,20.66,0,0,0,.14-2.37,3.5,3.5,0,0,0-.1-1.3c-.12-.41-.23-.83-.35-1.27a5.24,5.24,0,0,0-.88-2,9.22,9.22,0,0,0-1.5-1.57,1.63,1.63,0,0,0-.7-.42l-.84-.22c-.58-.09-1.15-.16-1.69-.23a11.25,11.25,0,0,0-1.76,0,4.7,4.7,0,0,0-1.33.23c-.43.15-.87.28-1.3.4l-.51.07c-.93.25-1.84.53-2.73.86s-1.79.69-2.7,1.1a3.13,3.13,0,0,1-.72.32,3.06,3.06,0,0,0-.72.31,8.31,8.31,0,0,0-.94.56,7.75,7.75,0,0,1-.94.56,11.22,11.22,0,0,0-1.77,1.1c-.53.42-1.08.87-1.64,1.34l-1.25,1.07a9.13,9.13,0,0,0-1.22,1.32,8.93,8.93,0,0,1-1,1.08,4.39,4.39,0,0,0-.86,1.14c-.41.69-.81,1.37-1.2,2.05s-.76,1.35-1.11,2a14.34,14.34,0,0,0-.57,1.44l-.48,1.43a.86.86,0,0,0-.15.45,1.35,1.35,0,0,1-.06.43c0,.35-.16.48-.46.41-1,0-1.35-.52-1.14-1.46s.56-2,.9-2.94a17,17,0,0,1,1.28-2.73c.23-.38.44-.78.64-1.2s.4-.86.63-1.28c.35-.68.74-1.34,1.16-2s.84-1.32,1.25-2c.23-.43.46-.84.72-1.25s.53-.8.81-1.18a8.14,8.14,0,0,1,1.5-1.49c.4-.34.8-.65,1.18-.93s.79-.57,1.2-.85,1-.68,1.53-1a12.27,12.27,0,0,1,1.62-.83c.54-.25,1.07-.46,1.61-.66l1.71-.58.72-.36a1.15,1.15,0,0,1,.47-.23,3.59,3.59,0,0,1,.75-.19l.75-.11,2.75-.39c1-.08,1.89-.11,2.8-.1a8.29,8.29,0,0,1,2.71.52,3.88,3.88,0,0,1,1.19.55c.38.26.75.51,1.13.74s.47.27.69.41.46.31.71.5a10.9,10.9,0,0,1,.92.76,3,3,0,0,1,.69,1,1.8,1.8,0,0,0,1.06.87.46.46,0,0,1,.21.31l.43,1.22.29.21c-.22.49-.06.81.47,1a3.26,3.26,0,0,0-.11.4.43.43,0,0,0,.05.37c.07.11.16.22.26.35a1.81,1.81,0,0,0,.35.33l0-.25.11.75Z"></path><path class="cls-1" d="M417.76,176.19l-.29-.21a.32.32,0,0,1,0,.21.18.18,0,0,0,0,.13,1.85,1.85,0,0,1,.38,1.18c0,.38-.08.77-.13,1.17a.61.61,0,0,0,0,.42.72.72,0,0,1,0,.43c-.11.47-.23.91-.37,1.33a12.25,12.25,0,0,0-.36,1.33c-.07.29-.14.56-.19.79s-.11.5-.18.79a1,1,0,0,1-.5.67,3.87,3.87,0,0,0-.27.55.84.84,0,0,0,0,.39c0,.13-.08.22-.3.25l.32.47-.22.28a2.29,2.29,0,0,1-.27.17c-.08,0-.08.17,0,.38a.74.74,0,0,1,0,.55,2.66,2.66,0,0,1-.21.58,3.12,3.12,0,0,1-.33.69,3.27,3.27,0,0,0-.33.68.59.59,0,0,0-.11.45.54.54,0,0,1-.11.44.6.6,0,0,1-.17.28,1.53,1.53,0,0,0-.18.19c-.12.42-.23.8-.35,1.16s-.24.74-.35,1.16l-.42.06.05.33c-.08.24-.14.47-.2.71a1,1,0,0,1-.3.55.91.91,0,0,0-.55.63q-.07.41-.18.84a6.13,6.13,0,0,1-.77,1.81.8.8,0,0,0-.16.36.79.79,0,0,1-.16.37,1.58,1.58,0,0,0-.24.42,1.52,1.52,0,0,1-.24.41.64.64,0,0,1-.17.28c-.08.07-.11.13-.1.19a1.11,1.11,0,0,1-.17,1.21,4.37,4.37,0,0,0-.71,1,22.32,22.32,0,0,1-1,2.28,3.52,3.52,0,0,1-.46.66,3.67,3.67,0,0,0-.46.66c-.09.18-.18.36-.26.55s-.18.36-.26.55l-1.05,1.68c-.13.24-.26.47-.37.69a4.61,4.61,0,0,0-.28.68,2.22,2.22,0,0,1-.19.45c-.19.31-.37.64-.55,1s-.36.66-.54,1v.09a4.91,4.91,0,0,0-.65.85,9.74,9.74,0,0,1-.63,1,10.68,10.68,0,0,1-.95,1.07c-.36.33-.71.66-1.05,1s-.47.5-.67.73a4.6,4.6,0,0,1-.67.65,8,8,0,0,1-2.77,1.5,3.32,3.32,0,0,0-1,.49,7.22,7.22,0,0,1-1,.57,7,7,0,0,1-1.23.34l-.75.11a3.73,3.73,0,0,1-.76,0,3,3,0,0,1-1.58-.29,4.92,4.92,0,0,1-1.23-.93,10,10,0,0,1-2-2.74,7.32,7.32,0,0,1-.72-3.26q0-1.2.06-2.31c0-.74.11-1.52.22-2.33a29.47,29.47,0,0,1,1.59-6.87c.36-1,.74-2.05,1.14-3.1s.82-2.09,1.3-3.12l1.16-2.34a25.16,25.16,0,0,1,1.25-2.26q1.65-2.88,3.55-5.62a25,25,0,0,1,1.79-2.46c.62-.77,1.22-1.57,1.79-2.39.33-.44.64-.87.92-1.28a7.86,7.86,0,0,0,.75-1.34,17,17,0,0,1,2.08-3.36,33.21,33.21,0,0,1,2.65-2.93,14,14,0,0,1,2.06-1.74l2.17-1.5.54-.37.55-.38a.77.77,0,0,1,.57-.16,3.76,3.76,0,0,1,2.36,1l.69.66c.2.21.43.43.69.67a.29.29,0,0,0,.22.06c.08,0,.13,0,.14.07a1.41,1.41,0,0,1,.15.48,2.79,2.79,0,0,0,.17.58,1.85,1.85,0,0,1,.68.92q.21.57.39,1.23c.12.43.22.9.33,1.39a3,3,0,0,1-.09,1.47Zm-3.67-1.86a5.56,5.56,0,0,0,0-1.41,11.28,11.28,0,0,0-.28-1.36c-.06-.45-.27-.56-.64-.34a2.65,2.65,0,0,0-.65.52c-.17.19-.36.39-.56.59s-.17.2-.22.2a3.94,3.94,0,0,0-1.69,1.35,6.75,6.75,0,0,1-1.13,1,2.57,2.57,0,0,0-.94,1.16.35.35,0,0,1-.25.11c-.31.22-.61.45-.92.69s-.62.47-.93.68a7,7,0,0,1-.81.59l-.82.49a1.25,1.25,0,0,1-.47.29.73.73,0,0,0-.39.26,3,3,0,0,1-.58.73l-.69.56c-.32.16-.35.33-.09.53a1.38,1.38,0,0,1,.34,1.82.25.25,0,0,0-.07.14s0,.07-.06.13L401,185.29a7.4,7.4,0,0,1-.53.8,7.44,7.44,0,0,0-.52.8l-.19-.15c-.09.24-.17.45-.25.64s-.18.36-.27.54l-.28-.21c-.1.13-.14.22-.13.27a.3.3,0,0,0-.06.22c0,.09,0,.13-.07.14a.49.49,0,0,1-.25,0,.5.5,0,0,0-.17,0l-.94,1.23c.21.26.07.48-.41.66-.12,0-.18.06-.2.11a.49.49,0,0,1-.19.2.82.82,0,0,0-.26.55.59.59,0,0,1-.44.49v.08l-.43.57a1.06,1.06,0,0,1,.15.15.53.53,0,0,0,.15.15,5.5,5.5,0,0,0-.64.35l.06.41a3.13,3.13,0,0,1-.44.79,3.7,3.7,0,0,0-.44.79c-.18.31-.37.63-.54,1l-.55,1c-.13.3-.24.59-.35.86s-.22.56-.35.86a.7.7,0,0,1-.3.25.39.39,0,0,0-.22.25c-.08.24-.15.46-.2.66a.94.94,0,0,1-.4.53l0,.17a2.11,2.11,0,0,1-.22.92,9.72,9.72,0,0,1-.47.88,4.86,4.86,0,0,1-.34.6.56.56,0,0,0-.09.57.52.52,0,0,1,.06.41,1.51,1.51,0,0,1-.2.37.22.22,0,0,0-.06.18.6.6,0,0,1-.05.26l-.21.29a.84.84,0,0,0,0,.39.79.79,0,0,1,0,.38,3.82,3.82,0,0,1-.33,1.24,3.72,3.72,0,0,0-.34,1.24c0,.47-.07,1-.09,1.46a3.73,3.73,0,0,1-.34,1.5l0,.25a2.93,2.93,0,0,1,.09,1.18,2.5,2.5,0,0,0,0,.95,5.65,5.65,0,0,1,.06,1,.14.14,0,0,0,.06.12.17.17,0,0,1,.06.12,2.62,2.62,0,0,0,.27.43,2.65,2.65,0,0,0,.34.33,1.86,1.86,0,0,1,.44.66,4.72,4.72,0,0,0,.36.76,1,1,0,0,0,.21.23,1,1,0,0,1,.2.23,3.52,3.52,0,0,0,2.78,1.56.68.68,0,0,0,.4-.14c.31-.21.62-.42.94-.6a3,3,0,0,0,.83-.76q.87-1.06,1.74-2.16c.57-.74,1.12-1.48,1.64-2.23.66-.95,1.28-1.9,1.85-2.87l1.76-2.93c.37-.61.71-1.22,1-1.8s.63-1.21.93-1.88c.45-.86.88-1.74,1.28-2.65s.84-1.82,1.28-2.74a4.08,4.08,0,0,0,.22-.54,4.08,4.08,0,0,1,.22-.54l1.33-3.26.22-.28.25,0-4.24,9.8a5,5,0,0,0,.71-1,.72.72,0,0,0,.14-.44.79.79,0,0,1,.16-.45c.26-.55.54-1.1.83-1.65s.56-1.13.82-1.74c.59-1.39,1.15-2.74,1.68-4.07s1.08-2.67,1.68-4.07a9.8,9.8,0,0,0,.44-1.08l.36-1.07a.62.62,0,0,0,.11-.44,1.82,1.82,0,0,1,0-.52,3.36,3.36,0,0,1,.28-.76.73.73,0,0,0-.06-.72.43.43,0,0,1,.12-.35c.16-.42.32-.82.47-1.18s.3-.75.47-1.17a2,2,0,0,0,.29-1c.07-.35.11-.7.15-1s.09-.69.15-1a9.3,9.3,0,0,0,.15-1c0-.35.09-.69.15-1q0-.93.09-1.8c0-.57.09-1.17.17-1.81Zm-2.88,13.35.25,0-.33,1.33-.25,0Zm5.31-13.61c-.11.41.07.67.54.77,0-.28-.08-.53-.11-.75a3.51,3.51,0,0,0-.19-.74c0-.06-.09-.07-.26,0a.14.14,0,0,1,0,.13.21.21,0,0,0,0,.14.34.34,0,0,0,.12.23.11.11,0,0,1,0,.17Z"></path><polygon class="cls-1" points="422.11 144.93 408.34 151.94 414.72 155.71 399.53 171.92 421.47 154.19 414.44 152.53 422.11 144.93"></polygon></g></g></svg>